<?xml version="1.0" encoding="UTF-8"?>
<svg width="20px" height="20px" viewBox="0 0 20 20" version="1.1" xmlns="http://www.w3.org/2000/svg" xmlns:xlink="http://www.w3.org/1999/xlink">
    <!-- Generator: sketchtool 58 (101010) - https://sketch.com -->
    <title>9759DA85-3F3F-4402-BAE2-FBA2CADEBB17</title>
    <desc>Created with sketchtool.</desc>
    <g id="3.-result" stroke="none" stroke-width="1" fill="none" fill-rule="evenodd">
        <g id="result_map_list_up" transform="translate(-281.000000, -62.000000)" fill="#5E5E5E" fill-rule="nonzero" stroke="#5E5E5E" stroke-width="0.5">
            <g id="ngb" transform="translate(20.000000, 58.000000)">
                <g id="icon_search" transform="translate(262.000000, 5.000000)">
                    <path d="M10.6015312,-3.90798505e-14 C14.6875927,-3.90798505e-14 18,3.31240729 18,7.39846877 C18,11.4845302 14.6875927,14.7969375 10.6015312,14.7969375 C8.81890035,14.7969375 7.18352103,14.1664786 5.90620273,13.1163702 L1.02176965,18 L0,16.9782303 L4.88362979,12.0937973 C3.83352139,10.816479 3.20306247,9.18109965 3.20306247,7.39846877 C3.20306247,3.31240729 6.51546976,-3.90798505e-14 10.6015312,-3.90798505e-14 Z M10.6015312,1.53071768 C7.36086179,1.53071768 4.73378014,4.15779932 4.73378014,7.39846877 C4.73378014,10.6391382 7.36086179,13.2662199 10.6015312,13.2662199 C13.8422007,13.2662199 16.4692823,10.6391382 16.4692823,7.39846877 C16.4692823,4.15779932 13.8422007,1.53071768 10.6015312,1.53071768 Z" id="검색" transform="translate(9.000000, 9.000000) scale(-1, 1) translate(-9.000000, -9.000000) "></path>
                </g>
            </g>
        </g>
    </g>
</svg>