<svg xmlns="http://www.w3.org/2000/svg" width="25" height="25" viewBox="0 0 25 25">
    <g fill="#B6B6B6" fill-rule="evenodd">
        <path stroke="#B6B6B6" d="M11.27.37C5.26.37.37 5.258.37 11.27c0 6.01 4.89 10.899 10.9 10.899 6.01 0 10.901-4.89 10.901-10.9 0-6.01-4.89-10.9-10.9-10.9m0 22.17C5.055 22.538 0 17.482 0 11.268 0 5.055 5.056 0 11.27 0c6.215 0 11.27 5.055 11.27 11.27 0 6.213-5.055 11.268-11.27 11.268" transform="translate(1 1)"/>
        <path d="M16.711 11.465c-2.783.854-4.388 2.459-5.243 5.245-.029.094-.159.094-.188 0-.855-2.786-2.46-4.391-5.246-5.245-.095-.03-.095-.16 0-.19 2.786-.853 4.391-2.459 5.246-5.241.03-.095.16-.095.188 0 .855 2.782 2.46 4.388 5.243 5.242.095.029.095.16 0 .189" transform="translate(1 1)"/>
    </g>
</svg>
