<?xml version="1.0" encoding="UTF-8"?>
<svg width="20px" height="20px" viewBox="0 0 20 20" version="1.1" xmlns="http://www.w3.org/2000/svg" xmlns:xlink="http://www.w3.org/1999/xlink">
    <!-- Generator: sketchtool 58 (101010) - https://sketch.com -->
    <title>5C017ED5-2DED-49D5-AC89-C8817C09AA7C</title>
    <desc>Created with sketchtool.</desc>
    <g id="Symbols" stroke="none" stroke-width="1" fill="none" fill-rule="evenodd">
        <g id="icon_share" fill="#5E5E5E">
            <path d="M16.3636364,1.81818182 C15.36,1.81818182 14.5454545,2.63272727 14.5454545,3.63636364 C14.5454545,3.93 14.6145455,4.20545455 14.7363636,4.44909091 C15.0363636,5.04727273 15.6527273,5.45454545 16.3636364,5.45454545 C17.3672727,5.45454545 18.1818182,4.64 18.1818182,3.63636364 C18.1818182,2.63272727 17.3672727,1.81818182 16.3636364,1.81818182 Z M12.7272727,3.63636364 C12.7272727,1.62818182 14.3554545,0 16.3636364,0 C18.3718182,0 20,1.62818182 20,3.63636364 C20,5.64454545 18.3718182,7.27272727 16.3636364,7.27272727 C15.2681818,7.27272727 14.2872727,6.78818182 13.6209091,6.02363636 L7.19272727,9.23818182 C7.24545455,9.48454545 7.27272727,9.73909091 7.27272727,10 C7.27272727,10.2609091 7.24545455,10.5154545 7.19272727,10.7618182 L13.6209091,13.9763636 C14.2872727,13.2118182 15.2681818,12.7272727 16.3636364,12.7272727 C18.3718182,12.7272727 20,14.3554545 20,16.3636364 C20,18.3718182 18.3718182,20 16.3636364,20 C14.3554545,20 12.7272727,18.3718182 12.7272727,16.3636364 C12.7272727,16.1027273 12.7545455,15.8481818 12.8072727,15.6018182 L6.37909091,12.3872727 C5.71272727,13.1518182 4.73181818,13.6363636 3.63636364,13.6363636 C1.62818182,13.6363636 0,12.0081818 0,10 C0,7.99181818 1.62818182,6.36363636 3.63636364,6.36363636 C4.73181818,6.36363636 5.71272727,6.84818182 6.37909091,7.61272727 L12.8072727,4.39818182 C12.7545455,4.15181818 12.7272727,3.89727273 12.7272727,3.63636364 Z M3.63636364,8.18181818 C2.63272727,8.18181818 1.81818182,8.99636364 1.81818182,10 C1.81818182,11.0036364 2.63272727,11.8181818 3.63636364,11.8181818 C4.34636364,11.8181818 4.96363636,11.4109091 5.26363636,10.8127273 C5.38545455,10.5690909 5.45454545,10.2936364 5.45454545,10 C5.45454545,9.70636364 5.38545455,9.43090909 5.26363636,9.18727273 C4.96363636,8.58909091 4.34636364,8.18181818 3.63636364,8.18181818 Z M16.3636364,14.5454545 C15.6527273,14.5454545 15.0363636,14.9527273 14.7363636,15.5509091 C14.6145455,15.7945455 14.5454545,16.07 14.5454545,16.3636364 C14.5454545,17.3672727 15.36,18.1818182 16.3636364,18.1818182 C17.3672727,18.1818182 18.1818182,17.3672727 18.1818182,16.3636364 C18.1818182,15.36 17.3672727,14.5454545 16.3636364,14.5454545 L16.3636364,14.5454545 Z" id="Fill-936"></path>
        </g>
    </g>
</svg>