<svg xmlns="http://www.w3.org/2000/svg" xmlns:xlink="http://www.w3.org/1999/xlink" width="237" height="169" viewBox="0 0 237 169">
    <defs>
        <path id="prefix__a" d="M0 237L237 237 237 0 0 0z"/>
    </defs>
    <g fill="none" fill-rule="evenodd" opacity=".105">
        <path fill="#5E5E5E" d="M119 201.215c-45.332 0-82.215-36.881-82.215-82.215S73.668 36.785 119 36.785 201.215 73.666 201.215 119 164.332 201.215 119 201.215M119 34c-46.87 0-85 38.131-85 85 0 46.871 38.13 85 85 85s85-38.129 85-85c0-46.869-38.13-85-85-85"/>
        <path fill="#5E5E5E" d="M149.586 117.941c-16.202-4.974-25.553-14.322-30.526-30.525-.17-.555-.93-.555-1.1 0-4.974 16.203-14.324 25.551-30.546 30.525-.552.17-.552.93 0 1.1 16.222 4.974 25.572 14.322 30.546 30.545.17.552.93.552 1.1 0 4.973-16.223 14.324-25.57 30.526-30.544.552-.171.552-.93 0-1.101"/>
        <mask id="prefix__b" fill="#fff">
            <use xlink:href="#prefix__a"/>
        </mask>
        <path fill="#5E5E5E" d="M0.47 123L0.53 123 0.53 114 0.47 114z" mask="url(#prefix__b)"/>
        <path fill="#5E5E5E" d="M212.405 123.124c-1.112 23.396-10.75 45.2-27.435 61.88-17.741 17.77-41.333 27.544-66.485 27.544-25.153 0-48.77-9.774-66.539-27.544-16.658-16.652-26.295-38.484-27.407-61.88-.083-1.533-.111-3.088-.111-4.621 0-1.533.028-3.094.111-4.624C25.651 90.483 35.29 68.68 51.974 52c17.742-17.77 41.333-27.544 66.483-27.544 25.152 0 48.772 9.774 66.541 27.543 16.658 16.652 26.295 38.485 27.407 61.881.084 1.53.112 3.091.112 4.624 0 1.558-.028 3.088-.112 4.62zm24.54-9.245h-16.74c-.28-6.463-1.198-12.95-2.73-19.358l7.41-2-1.282-4.738-7.383 1.95c-2.031-6.961-4.815-13.7-8.296-20.024l6.6-3.787-2.481-4.317-6.6 3.843c-3.762-6.181-8.19-11.945-13.23-17.21l5.43-5.43-3.51-3.457-5.403 5.404c-5.237-4.983-11-9.44-17.184-13.227l3.787-6.599-4.233-2.508-3.844 6.655c-6.323-3.48-13.065-6.265-20.055-8.352l1.976-7.355-4.735-1.28-1.976 7.38c-6.351-1.532-12.84-2.45-19.386-2.73V0h-9.247v16.738c-7.686.335-15.317 1.533-22.672 3.565l-2.17-8.213-4.794 1.279 2.26 8.383c-5.825 1.92-11.452 4.373-16.77 7.296l-3.814-6.6-4.32 2.481 3.815 6.6c-6.126 3.756-11.892 8.185-17.156 13.226l-5.457-5.404-3.512 3.456 5.46 5.432c-5.014 5.264-9.442 11.056-13.202 17.21l-6.63-3.844-2.478 4.317 6.628 3.815c-3.426 6.268-6.238 13.007-8.297 19.996l-7.383-1.95-1.282 4.737 7.383 2.001c-1.56 6.463-2.48 12.951-2.704 19.358H0v9.245h16.738c.28 6.46 1.199 12.95 2.729 19.355l-7.408 2.006 1.282 4.732 7.383-1.948c2.029 6.962 4.816 13.704 8.297 20.024l-6.6 3.788 2.478 4.317 6.602-3.843c3.76 6.184 8.188 11.947 13.23 17.212l-5.43 5.429 3.507 3.453 5.404-5.401c5.236 4.983 11.002 9.439 17.187 13.23l-3.788 6.596 4.23 2.508 3.847-6.655c6.323 3.48 13.062 6.265 20.052 8.355l-1.979 7.35 4.738 1.281 1.979-7.38c6.349 1.533 12.84 2.453 19.386 2.729V237h9.244v-16.738c7.69-.335 15.32-1.53 22.675-3.565l2.171 8.216 4.79-1.282-2.257-8.38c5.822-1.923 11.45-4.376 16.77-7.3l3.815 6.603 4.317-2.48-3.816-6.597c6.129-3.762 11.892-8.19 17.157-13.23l5.46 5.402 3.511-3.453-5.46-5.43c5.011-5.264 9.44-11.058 13.202-17.211l6.628 3.843 2.48-4.317-6.627-3.815c3.422-6.265 6.237-13.007 8.296-19.997l7.383 1.948 1.282-4.732-7.383-2.006c1.561-6.46 2.48-12.948 2.704-19.355H237v-9.245h-.056z" mask="url(#prefix__b)"/>
    </g>
</svg>
