<?xml version="1.0" encoding="UTF-8"?>
<svg width="28px" height="28px" viewBox="0 0 28 28" version="1.1" xmlns="http://www.w3.org/2000/svg" xmlns:xlink="http://www.w3.org/1999/xlink">
    <!-- Generator: sketchtool 58 (101010) - https://sketch.com -->
    <title>E280E70A-3024-44D4-9E80-78C65F280D6B</title>
    <desc>Created with sketchtool.</desc>
    <g id="Symbols" stroke="none" stroke-width="1" fill="none" fill-rule="evenodd">
        <g id="icon_logo" transform="translate(1.000000, 1.000000)" fill="#40AEE1">
            <g id="로고">
                <path d="M13.2301615,0.433463125 C6.17424875,0.433463125 0.433463125,6.17338183 0.433463125,13.2292946 C0.433463125,20.2843404 6.17424875,26.0242591 13.2301615,26.0242591 C20.2860742,26.0242591 26.0268599,20.2843404 26.0268599,13.2292946 C26.0268599,6.17338183 20.2860742,0.433463125 13.2301615,0.433463125 M13.2301615,26.4577222 C5.93497711,26.4577222 0,20.523612 0,13.2292946 C0,5.93454364 5.93497711,0 13.2301615,0 C20.5253459,0 26.460323,5.93454364 26.460323,13.2292946 C26.460323,20.523612 20.5253459,26.4577222 13.2301615,26.4577222" id="Fill-1" stroke="#40AEE1"></path>
                <path d="M19.6173589,13.4584879 C16.350504,14.4610685 14.4655847,16.3454234 13.463004,19.6156653 C13.4285685,19.726875 13.2761492,19.726875 13.2417137,19.6156653 C12.2385685,16.3454234 10.3542137,14.4610685 7.08340726,13.4584879 C6.97219758,13.4240524 6.97219758,13.2710685 7.08340726,13.2366331 C10.3542137,12.2340524 12.2385685,10.3496976 13.2417137,7.08340726 C13.2761492,6.97219758 13.4285685,6.97219758 13.463004,7.08340726 C14.4655847,10.3496976 16.350504,12.2340524 19.6173589,13.2366331 C19.7285685,13.2710685 19.7285685,13.4240524 19.6173589,13.4584879" id="Fill-4"></path>
            </g>
        </g>
    </g>
</svg>