<?xml version="1.0" encoding="UTF-8"?>
<svg width="86px" height="80px" viewBox="0 0 86 80" version="1.1" xmlns="http://www.w3.org/2000/svg" xmlns:xlink="http://www.w3.org/1999/xlink">
    <!-- Generator: sketchtool 58 (101010) - https://sketch.com -->
    <title>D27687A7-A1A4-4348-83BA-210B74938AE4</title>
    <desc>Created with sketchtool.</desc>
    <defs>
        <polygon id="path-1" points="0 0.42 85.09 0.42 85.09 68.1561687 0 68.1561687"></polygon>
    </defs>
    <g id="Symbols" stroke="none" stroke-width="1" fill="none" fill-rule="evenodd">
        <g id="icon_findmyzone">
            <g id="icon">
                <path d="M42.7519,29.2165 C42.6909,29.0195 42.4199,29.0195 42.3589,29.2165 C40.5819,35.0065 37.2409,38.3475 31.4439,40.1245 C31.2469,40.1855 31.2469,40.4565 31.4439,40.5175 C37.2409,42.2945 40.5819,45.6355 42.3589,51.4325 C42.4199,51.6295 42.6909,51.6295 42.7519,51.4325 C44.5289,45.6355 47.8699,42.2945 53.6599,40.5175 C53.8569,40.4565 53.8569,40.1855 53.6599,40.1245 C47.8699,38.3475 44.5289,35.0065 42.7519,29.2165 Z" id="Fill-1" fill="#01B9FF"></path>
                <g id="Group-5" transform="translate(0.000000, 0.580100)">
                    <mask id="mask-2" fill="white">
                        <use xlink:href="#path-1"></use>
                    </mask>
                    <g id="Clip-4"></g>
                    <path d="M72.78,58.0405 L72.759,58.0895 L69.04,58.0895 C71.783,53.4285 73.23,48.1215 73.23,42.6735 C73.23,25.7535 59.47,11.9835 42.551,11.9835 C25.63,11.9835 11.86,25.7535 11.86,42.6735 C11.86,47.4865 13.015,52.2895 15.193,56.5645 L15.204,56.5645 C15.237,56.6385 15.275,56.7105 15.31,56.7835 L15.31,58.8395 L12.74,58.8395 L12.7,58.7695 C10.14,53.9195 8.79,48.4495 8.79,42.9705 C8.79,33.9495 12.301,25.4705 18.679,19.0895 C25.051,12.7105 33.52,9.1995 42.551,9.1995 C51.58,9.1995 60.06,12.7105 66.44,19.0895 C72.81,25.4605 76.32,33.9395 76.32,42.9705 C76.32,48.1995 75.1,53.4095 72.78,58.0405 L72.78,58.0405 Z M79.08,41.3105 C78.98,38.9895 78.65,36.6595 78.1,34.3595 L80.759,33.6405 L80.301,31.9395 L77.65,32.6405 C76.92,30.1405 75.92,27.7205 74.67,25.4495 L77.04,24.0895 L76.15,22.5405 L73.78,23.9195 C72.429,21.6995 70.84,19.6305 69.03,17.7395 L70.98,15.7905 L69.72,14.5505 L67.78,16.4895 C65.9,14.6995 63.83,13.1005 61.61,11.7395 L62.97,9.3695 L61.45,8.4705 L60.07,10.8595 C57.801,9.6095 55.381,8.6095 52.87,7.8595 L53.58,5.2205 L51.881,4.7605 L51.17,7.4095 C48.89,6.8595 46.56,6.5295 44.21,6.4305 L44.21,0.4195 L40.89,0.4195 L40.89,6.4305 C38.131,6.5505 35.39,6.9795 32.75,7.7105 L31.97,4.7605 L30.25,5.2205 L31.06,8.2295 C28.97,8.9195 26.95,9.8005 25.04,10.8505 L23.67,8.4795 L22.12,9.3695 L23.49,11.7395 C21.29,13.0895 19.22,14.6805 17.33,16.4895 L15.37,14.5505 L14.11,15.7905 L16.07,17.7395 C14.27,19.6305 12.679,21.7105 11.33,23.9195 L8.95,22.5405 L8.06,24.0895 L10.44,25.4605 C9.21,27.7105 8.2,30.1305 7.46,32.6405 L4.81,31.9395 L4.35,33.6405 L7,34.3595 C6.44,36.6805 6.11,39.0105 6.03,41.3105 L0,41.3105 L0,44.6305 L6.03,44.6305 C6.12,47.0695 6.49,49.5605 7.12,52.0405 L7.32,52.8195 C7.95,55.0695 8.78,57.2295 9.81,59.2695 C9.85,59.3695 9.9,59.4605 9.95,59.5605 L10.11,59.8995 C10.16,60.0505 10.24,60.1495 10.37,60.2295 C10.46,60.3295 10.62,60.3595 10.79,60.3595 L15.33,60.3595 L10.44,66.4095 C10.28,66.6005 10.16,66.7295 10.06,66.8295 C9.91,66.9605 9.759,67.0795 9.61,67.1995 L10.69,68.0405 C10.881,68.1895 11.051,68.1895 11.19,68.0695 C11.35,67.9705 11.45,67.8905 11.53,67.7905 L16.16,61.9995 L20.801,67.7905 C20.85,67.8905 20.98,67.9705 21.12,68.0695 C21.28,68.1895 21.429,68.1895 21.631,68.0405 L22.72,67.1995 C22.54,67.0795 22.39,66.9605 22.29,66.8295 C22.131,66.7295 22.009,66.6005 21.89,66.4095 L16.99,60.3595 L21.74,60.3595 C21.86,60.3595 21.99,60.3295 22.09,60.2295 C22.16,60.1495 22.21,60.0505 22.21,59.8995 L22.21,58.8395 L17.02,58.8395 L17.02,56.3195 L16.221,56.3195 C14.035,52.1425 12.873,47.4345 12.873,42.6735 C12.873,26.3115 26.187,12.9975 42.551,12.9975 C58.903,12.9975 72.217,26.3115 72.217,42.6735 C72.217,48.1285 70.708,53.4525 67.879,58.0895 L59.37,58.0895 C59.27,58.0895 59.22,58.1095 59.16,58.1595 C59.09,58.2395 59.06,58.3105 59.06,58.3805 C59.06,58.4305 59.06,58.4795 59.09,58.5105 L59.4,59.1495 C59.44,59.2905 59.52,59.3905 59.65,59.4705 C59.75,59.5605 59.9,59.6005 60.07,59.6005 L66.48,59.6005 C66.381,59.6695 66.19,59.7795 65.97,59.9195 C65.73,60.1005 65.35,60.3595 64.84,60.6495 C64.31,60.9895 63.631,61.4095 62.82,61.9195 C61.97,62.4495 59.65,63.8805 59.65,63.8805 C59.65,63.8805 59.34,64.0795 59.16,64.1895 C58.96,64.3105 58.77,64.4095 58.6,64.4795 L59.57,65.5405 C59.65,65.6495 59.75,65.6805 59.85,65.6095 C59.929,65.6095 60.03,65.5695 60.12,65.4895 C60.12,65.4895 60.15,65.4895 60.2,65.4395 C60.2,65.4395 60.31,65.3695 60.45,65.2695 C60.58,65.1995 60.81,65.0405 61.11,64.8395 C61.39,64.6695 61.79,64.3905 62.34,64.0405 C62.84,63.6995 63.53,63.2795 64.36,62.7495 C65.17,62.2395 66.14,61.6405 67.34,60.8905 L74.36,65.3995 C74.62,65.5695 74.82,65.6495 74.98,65.6495 C75.179,65.4195 75.35,65.2205 75.5,65.0605 C75.631,64.9395 75.801,64.7395 76.06,64.4795 C75.85,64.4095 75.679,64.3105 75.5,64.1895 C75.301,64.0795 75.15,63.9705 75.02,63.8805 C73.81,63.1495 72.81,62.5195 71.99,62.0195 C71.17,61.5105 70.49,61.1095 69.97,60.7605 C69.44,60.4495 69.051,60.1895 68.79,59.9995 C68.5,59.8195 68.29,59.6995 68.19,59.6005 L74.28,59.6005 L75.14,59.6005 L75.15,59.5795 L75.16,59.5605 C76.25,57.4305 77.14,55.1695 77.801,52.8005 L77.83,52.6695 C77.86,52.5295 77.89,52.3995 77.94,52.2495 L78,52.0505 C78.61,49.6195 78.97,47.1305 79.08,44.6305 L85.09,44.6305 L85.09,41.3105 L79.08,41.3105 Z" id="Fill-3" fill="#01B9FF" mask="url(#mask-2)"></path>
                </g>
                <path d="M43.7898,68.2495 C43.5398,68.8995 43.2298,69.4705 42.8508,69.9495 C42.4498,70.4605 41.9708,70.8405 41.4398,71.0905 C40.8908,71.3995 40.3298,71.5205 39.7298,71.5205 C39.1308,71.5205 38.5508,71.3995 38.0198,71.0905 C37.4708,70.8405 37.0098,70.4605 36.6308,69.9495 C36.2298,69.4705 35.8998,68.8995 35.6698,68.2495 C35.4198,67.5795 35.3198,66.8805 35.3198,66.1005 C35.3198,65.3505 35.4198,64.6095 35.6698,63.9605 C35.8998,63.3005 36.2298,62.7495 36.6308,62.2395 C37.0098,61.7605 37.4708,61.3805 38.0198,61.0795 C38.5508,60.8295 39.1308,60.6805 39.7298,60.6805 C40.3298,60.6805 40.8908,60.8295 41.4398,61.0795 C41.9708,61.3805 42.4498,61.7605 42.8508,62.2395 C43.2298,62.7495 43.5398,63.3005 43.7898,63.9605 C44.0198,64.6095 44.1498,65.3505 44.1498,66.1005 C44.1498,66.8805 44.0198,67.5795 43.7898,68.2495 M44.1098,61.1595 C43.5398,60.5605 42.8908,60.0505 42.1498,59.6995 C41.3998,59.3405 40.5898,59.1695 39.7298,59.1695 C38.8808,59.1695 38.0608,59.3405 37.3398,59.6995 C36.5798,60.0505 35.9298,60.5605 35.3698,61.1595 C34.7898,61.7905 34.3398,62.5205 34.0298,63.3505 C33.7098,64.2105 33.5608,65.1405 33.5608,66.1005 C33.5608,67.0795 33.7098,67.9895 34.0298,68.8195 C34.3398,69.6805 34.7898,70.4395 35.3698,71.0405 C35.9298,71.6695 36.5798,72.1495 37.3398,72.4995 C38.0608,72.8505 38.8808,73.0295 39.7298,73.0295 C40.5898,73.0295 41.3998,72.8505 42.1498,72.4995 C42.8908,72.1495 43.5398,71.6695 44.1098,71.0405 C44.6698,70.4395 45.1008,69.6805 45.4298,68.8195 C45.7298,67.9895 45.9098,67.0795 45.9098,66.1005 C45.9098,65.1405 45.7298,64.2105 45.4298,63.3505 C45.1008,62.5205 44.6698,61.7905 44.1098,61.1595" id="Fill-6" fill="#01B9FF"></path>
                <path d="M51.4294,57.4097 L49.7204,57.4097 L49.7204,79.5797 L50.7204,79.5797 C50.9194,79.5797 51.0794,79.5107 51.2304,79.3807 C51.3504,79.2297 51.4294,79.0797 51.4294,78.8807 L51.4294,66.4797 L54.7304,66.4797 C55.0604,66.4797 55.2404,66.3807 55.2404,66.1307 L55.2404,64.9707 L51.4294,64.9707 L51.4294,57.4097 Z" id="Fill-8" fill="#01B9FF"></path>
                <path d="M61.2595,77.3101 C61.1905,77.2201 61.1595,77.0901 61.1595,76.9901 L61.1595,72.2801 L59.4005,72.2801 L59.4005,78.1001 C59.4005,78.3201 59.4705,78.5301 59.6505,78.7001 C59.8005,78.8601 59.9705,78.9501 60.2205,78.9501 L75.1795,78.9501 C75.3005,78.9501 75.4295,78.9001 75.5205,78.8201 C75.6005,78.7301 75.6505,78.6301 75.6505,78.4991 L75.6505,77.4401 L61.5395,77.4401 C61.3805,77.4401 61.3105,77.3901 61.2595,77.3101" id="Fill-10" fill="#01B9FF"></path>
                <path d="M68.3103,68.4702 C68.2203,68.4192 68.1903,68.3202 68.1903,68.1692 L68.1903,64.5602 L66.4803,64.5602 L66.4803,68.1692 C66.4803,68.3202 66.4193,68.4192 66.3503,68.4702 C66.2493,68.5702 66.1503,68.6202 66.0203,68.6202 L56.4703,68.6202 L56.4703,70.1402 L77.4103,70.1402 C77.7403,70.1402 77.9193,70.0302 77.9193,69.7802 L77.9193,68.6202 L68.6503,68.6202 C68.4993,68.6202 68.3903,68.5702 68.3103,68.4702" id="Fill-12" fill="#01B9FF"></path>
                <path d="M27.7302,57.3999 L26.0202,57.3999 L26.0202,69.1299 L27.0302,69.1299 C27.2302,69.1299 27.3802,69.0699 27.5302,68.9199 C27.6502,68.7909 27.7302,68.6209 27.7302,68.4199 L27.7302,63.9609 L31.0402,63.9609 C31.3602,63.9609 31.5402,63.8599 31.5402,63.6099 L31.5402,62.4499 L27.7302,62.4499 L27.7302,57.3999 Z" id="Fill-14" fill="#01B9FF"></path>
                <path d="M27.1794,77.1206 L20.7304,72.2796 L27.5304,72.2796 C27.8294,72.2796 28.0094,72.1206 28.0094,71.8196 L28.0094,70.7696 L11.6004,70.7696 L11.6004,72.2796 L18.8804,72.2796 L12.4504,77.1206 C12.2594,77.2906 12.0094,77.4706 11.7494,77.6096 C11.4804,77.7696 11.2494,77.8706 11.0704,77.9396 L12.0094,78.9496 C12.1794,79.0296 12.3504,79.0506 12.5094,79.0296 C12.6594,78.9796 12.8104,78.8806 13.0094,78.6896 L19.8204,73.5906 L26.6304,78.6896 C26.8004,78.8806 26.9704,78.9796 27.1304,79.0296 C27.2804,79.0506 27.4294,79.0296 27.6194,78.9496 L28.5604,77.9396 C28.3604,77.8706 28.1594,77.7496 27.9094,77.5906 C27.6194,77.4096 27.3804,77.2696 27.1794,77.1206" id="Fill-16" fill="#01B9FF"></path>
            </g>
        </g>
    </g>
</svg>